<?xml version="1.0" encoding="UTF-8" standalone="no"?>
<svg
   xmlns:dc="http://purl.org/dc/elements/1.1/"
   xmlns:cc="http://creativecommons.org/ns#"
   xmlns:rdf="http://www.w3.org/1999/02/22-rdf-syntax-ns#"
   xmlns:svg="http://www.w3.org/2000/svg"
   xmlns="http://www.w3.org/2000/svg"
   xmlns:sodipodi="http://sodipodi.sourceforge.net/DTD/sodipodi-0.dtd"
   xmlns:inkscape="http://www.inkscape.org/namespaces/inkscape"
   version="1.1"
   x="0px"
   y="0px"
   viewBox="0 0 92.62394 88.450089"
   enable-background="new 0 0 100 100"
   xml:space="preserve"
   id="svg4831"
   sodipodi:docname="dead_tree.svg"
   width="92.62394"
   height="88.450089"
   inkscape:version="0.92.1 r"><metadata
     id="metadata4837"><rdf:RDF><cc:Work
         rdf:about=""><dc:format>image/svg+xml</dc:format><dc:type
           rdf:resource="http://purl.org/dc/dcmitype/StillImage" /></cc:Work></rdf:RDF></metadata><defs
     id="defs4835" /><sodipodi:namedview
     pagecolor="#ffffff"
     bordercolor="#666666"
     borderopacity="1"
     objecttolerance="10"
     gridtolerance="10"
     guidetolerance="10"
     inkscape:pageopacity="0"
     inkscape:pageshadow="2"
     inkscape:window-width="3200"
     inkscape:window-height="1689"
     id="namedview4833"
     showgrid="false"
     inkscape:zoom="11.32"
     inkscape:cx="46.08274"
     inkscape:cy="37.500089"
     inkscape:window-x="0"
     inkscape:window-y="55"
     inkscape:window-maximized="1"
     inkscape:current-layer="svg4831" /><path
     d="m 43.24274,44.899 -1.09,26.809 c 0,0 -4.577,11.987 -11.116,11.987 0,0 0.607,1.891 2.722,1.875 3.083,-0.023 8.143,-1.268 9.048,-2.953 0,0 0.501,2.245 2.204,3.741 0.737,0.649 2.39,0.217 3.245,0.171 0,0 -0.557,-2.199 1.091,-2.834 0,0 2.259,1.605 5.095,2.566 1.211,0.41 1.824,-0.462 3.623,-1.041 0,0 -8.064,-5.23 -8.064,-13.513 0,-8.283 -0.436,-28.553 -0.436,-28.553 0,0 -0.276,-3.486 4.766,-6.975 5.042,-3.487 17.465,-12.175 17.465,-12.175 l 6.757,3.784 1.526,-1.635 -4.994,-3.703 4.34,-4.686 -1.744,-2.289 -5.231,2.834 -1.702,-7.629 h -2.657 l 0.436,9.264 -9.808,6.974 -5.231,-8.5 9.591,-14.603 -2.507,-1.962 -3.16,3.161 -4.25,-5.014 -2.079,0.545 2.622,9.481 -3.16,3.269 -6.212,-8.282 -2.778,1.199 1.471,3.814 h -12.642 L 29.72974,0 h -2.616 l -0.653,9.59 -8.283,-3.378 -1.09,2.615 10.571,5.013 17.654,0.763 9.017,15.148 -8.254,5.231 c 0,0 -1.744,1.089 -1.744,3.378 l -7.224,-6.647 -1.167,-7.707 h -2.397 l -1.09,3.784 -6.539,-6.687 -2.756,1.347 1.558,2.085 -7.629,-0.529 -0.748,1.822 10.447,2.467 3.378,2.654 -8.736,1.635 0.562,3.052 11.988,-0.109 z"
     id="path4769"
     inkscape:connector-curvature="0"
     style="fill:#000000" /><path
     d="m 62.75074,80.985 c 0,1.625 -1.317,2.942 -2.942,2.942 -1.626,0 -2.942,-1.317 -2.942,-2.942 0,-1.625 1.316,-7.303 2.942,-7.303 1.625,0 2.942,5.678 2.942,7.303 z"
     id="path4771"
     inkscape:connector-curvature="0"
     style="fill:#000000" /><path
     d="m 30.45574,86.443 c -1.388,0.845 -3.197,0.402 -4.042,-0.985 -0.846,-1.389 -0.403,-3.199 0.985,-4.043 1.388,-0.845 6.923,-2.668 7.767,-1.279 0.845,1.388 -3.321,5.462 -4.71,6.307 z"
     id="path4773"
     inkscape:connector-curvature="0"
     style="fill:#000000" /><path
     d="m 81.75874,86.567 c -1.148,1.149 -3.012,1.149 -4.161,0 -1.149,-1.148 -1.149,-3.012 0,-4.161 1.149,-1.148 6.096,-4.231 7.244,-3.082 1.148,1.149 -1.934,6.095 -3.083,7.243 z"
     id="path4775"
     inkscape:connector-curvature="0"
     style="fill:#000000" /><path
     d="m 53.80174,87.081 c -1.594,0.318 -3.143,-0.717 -3.461,-2.312 -0.316,-1.593 0.718,-3.143 2.312,-3.46 1.594,-0.317 7.418,-0.134 7.736,1.46 0.317,1.593 -4.994,3.994 -6.587,4.312 z"
     id="path4777"
     inkscape:connector-curvature="0"
     style="fill:#000000" /><path
     d="m 36.39374,75.889 c 1.352,0.902 1.715,2.73 0.812,4.082 -0.902,1.352 -2.729,1.715 -4.081,0.812 -1.352,-0.902 -5.341,-5.15 -4.438,-6.502 0.903,-1.351 6.354,0.706 7.707,1.608 z"
     id="path4779"
     inkscape:connector-curvature="0"
     style="fill:#000000" /><path
     d="m 49.47574,80.79 c 1.601,0.285 2.667,1.812 2.381,3.412 -0.284,1.601 -1.812,2.666 -3.411,2.383 -1.601,-0.285 -6.958,-2.576 -6.674,-4.176 0.284,-1.6 6.103,-1.903 7.704,-1.619 z"
     id="path4781"
     inkscape:connector-curvature="0"
     style="fill:#000000" /><path
     d="m 35.97574,78.97 c 1.352,0.902 1.715,2.729 0.812,4.081 -0.902,1.351 -2.729,1.716 -4.081,0.812 -1.352,-0.903 -5.341,-5.15 -4.438,-6.502 0.903,-1.352 6.355,0.705 7.707,1.609 z"
     id="path4783"
     inkscape:connector-curvature="0"
     style="fill:#000000" /><path
     d="m 58.43574,84.564 c -1.551,0.489 -3.204,-0.37 -3.693,-1.919 -0.489,-1.551 0.369,-3.203 1.918,-3.692 1.551,-0.489 7.359,-0.944 7.85,0.606 0.488,1.549 -4.528,4.516 -6.075,5.005 z"
     id="path4785"
     inkscape:connector-curvature="0"
     style="fill:#000000" /><path
     d="m 65.79474,86.864 c -1.562,-0.449 -2.465,-2.079 -2.016,-3.641 0.449,-1.562 2.079,-2.465 3.641,-2.016 1.562,0.449 6.654,3.283 6.205,4.844 -0.449,1.563 -6.269,1.262 -7.83,0.813 z"
     id="path4787"
     inkscape:connector-curvature="0"
     style="fill:#000000" /><path
     d="m 79.69774,83.386 c -0.777,1.427 -2.564,1.955 -3.991,1.178 -1.428,-0.777 -1.954,-2.564 -1.177,-3.992 0.777,-1.428 4.646,-5.782 6.075,-5.006 1.427,0.777 -0.129,6.392 -0.907,7.82 z"
     id="path4789"
     inkscape:connector-curvature="0"
     style="fill:#000000" /><path
     d="m 7.6977401,81.315 c 1.603,0.269 2.6829999,1.786 2.4139999,3.389 -0.2689999,1.603 -1.7859999,2.684 -3.3889999,2.414 -1.603,-0.27 -6.98200004,-2.507 -6.71300004,-4.11 0.268,-1.603 6.08600004,-1.962 7.68800004,-1.693 z"
     id="path4791"
     inkscape:connector-curvature="0"
     style="fill:#000000" /><path
     d="m 69.87574,83.475 c -0.776,1.428 -2.563,1.954 -3.991,1.177 -1.427,-0.776 -1.955,-2.563 -1.177,-3.99 0.776,-1.428 4.647,-5.784 6.076,-5.007 1.427,0.777 -0.131,6.393 -0.908,7.82 z"
     id="path4793"
     inkscape:connector-curvature="0"
     style="fill:#000000" /><path
     d="m 61.22574,81.393 c -0.081,1.623 -1.462,2.873 -3.086,2.792 -1.622,-0.08 -2.873,-1.462 -2.793,-3.085 0.082,-1.623 1.679,-7.227 3.302,-7.146 1.622,0.081 2.657,5.816 2.577,7.439 z"
     id="path4795"
     inkscape:connector-curvature="0"
     style="fill:#000000" /><path
     d="m 70.44974,77.468 c 1.298,0.979 1.557,2.824 0.578,4.121 -0.979,1.297 -2.823,1.556 -4.12,0.576 -1.299,-0.978 -5.037,-5.447 -4.059,-6.745 0.98,-1.298 6.304,1.069 7.601,2.048 z"
     id="path4797"
     inkscape:connector-curvature="0"
     style="fill:#000000" /><path
     d="m 71.79374,79.852 c 0.034,-1.623 1.379,-2.914 3.003,-2.881 1.626,0.033 2.915,1.379 2.881,3.003 -0.033,1.625 -1.467,7.272 -3.093,7.239 -1.623,-0.033 -2.824,-5.736 -2.791,-7.361 z"
     id="path4799"
     inkscape:connector-curvature="0"
     style="fill:#000000" /><path
     d="m 59.34274,86.131 c -1.602,-0.272 -2.68,-1.791 -2.406,-3.394 0.271,-1.603 1.79,-2.68 3.393,-2.408 1.603,0.272 6.978,2.522 6.706,4.123 -0.273,1.603 -6.09,1.951 -7.693,1.679 z"
     id="path4801"
     inkscape:connector-curvature="0"
     style="fill:#000000" /><path
     d="m 56.99574,79.292 c 0.265,1.604 -0.821,3.117 -2.427,3.381 -1.604,0.264 -3.116,-0.824 -3.38,-2.426 -0.264,-1.604 0.116,-7.419 1.72,-7.684 1.604,-0.263 3.824,5.125 4.087,6.729 z"
     id="path4803"
     inkscape:connector-curvature="0"
     style="fill:#000000" /><path
     d="m 53.98474,81.436 c -0.278,1.601 -1.802,2.674 -3.404,2.396 -1.6,-0.278 -2.673,-1.802 -2.396,-3.402 0.278,-1.601 2.548,-6.969 4.148,-6.69 1.602,0.276 1.93,6.095 1.652,7.696 z"
     id="path4805"
     inkscape:connector-curvature="0"
     style="fill:#000000" /><path
     d="m 59.41174,78.359 c 1.187,1.111 1.247,2.974 0.136,4.16 -1.11,1.186 -2.973,1.246 -4.157,0.136 -1.187,-1.11 -4.431,-5.952 -3.319,-7.139 1.11,-1.185 6.155,1.733 7.34,2.843 z"
     id="path4807"
     inkscape:connector-curvature="0"
     style="fill:#000000" /><path
     d="m 38.66374,84.302 c -0.777,1.426 -2.564,1.953 -3.992,1.177 -1.428,-0.776 -1.954,-2.563 -1.177,-3.991 0.777,-1.427 4.648,-5.782 6.076,-5.006 1.427,0.777 -0.131,6.392 -0.907,7.82 z"
     id="path4809"
     inkscape:connector-curvature="0"
     style="fill:#000000" /><path
     d="m 38.64474,80.432 c 1.297,0.979 1.556,2.824 0.577,4.121 -0.979,1.297 -2.823,1.557 -4.121,0.578 -1.297,-0.979 -5.036,-5.449 -4.058,-6.746 0.979,-1.296 6.305,1.069 7.602,2.047 z"
     id="path4811"
     inkscape:connector-curvature="0"
     style="fill:#000000" /><path
     d="m 88.81574,80.427 c 1.554,-0.477 3.2,0.395 3.677,1.948 0.479,1.554 -0.395,3.2 -1.947,3.677 -1.553,0.478 -7.367,0.887 -7.844,-0.667 -0.478,-1.554 4.562,-4.481 6.114,-4.958 z"
     id="path4813"
     inkscape:connector-curvature="0"
     style="fill:#000000" /><path
     d="m 20.65674,78.707 c 1.421,-0.789 3.212,-0.276 4,1.145 0.789,1.421 0.276,3.212 -1.145,4.001 -1.42,0.789 -7.023,2.391 -7.812,0.97 -0.788,-1.422 3.536,-5.328 4.957,-6.116 z"
     id="path4815"
     inkscape:connector-curvature="0"
     style="fill:#000000" /><path
     d="m 13.46974,80.568 c 1.42,-0.788 3.211,-0.276 4,1.146 0.789,1.42 0.276,3.211 -1.146,4 -1.42,0.789 -7.0229999,2.391 -7.8119999,0.971 -0.788,-1.423 3.5369999,-5.329 4.9579999,-6.117 z"
     id="path4817"
     inkscape:connector-curvature="0"
     style="fill:#000000" /><path
     d="m 23.95574,80.852 c 1.594,0.313 2.633,1.861 2.318,3.455 -0.314,1.596 -1.861,2.633 -3.456,2.318 -1.595,-0.315 -6.909,-2.703 -6.595,-4.299 0.315,-1.593 6.139,-1.788 7.733,-1.474 z"
     id="path4819"
     inkscape:connector-curvature="0"
     style="fill:#000000" /><path
     d="m 23.66974,77.371 c 1.009,-1.272 2.859,-1.488 4.133,-0.479 1.274,1.009 1.489,2.858 0.479,4.134 -1.009,1.273 -5.566,4.905 -6.839,3.896 -1.274,-1.009 1.217,-6.277 2.227,-7.551 z"
     id="path4821"
     inkscape:connector-curvature="0"
     style="fill:#000000" /><path
     d="m 15.57474,79.235 c 0.741,-1.447 2.514,-2.02 3.96,-1.277 1.446,0.74 2.019,2.513 1.277,3.959 -0.739,1.447 -4.5,5.898 -5.946,5.158 -1.446,-0.74 -0.031,-6.394 0.709,-7.84 z"
     id="path4823"
     inkscape:connector-curvature="0"
     style="fill:#000000" /><path
     d="m 38.46074,80.709 c 0.311,-1.596 1.855,-2.637 3.45,-2.326 1.596,0.311 2.637,1.855 2.327,3.45 -0.311,1.596 -2.689,6.915 -4.283,6.604 -1.596,-0.31 -1.805,-6.133 -1.494,-7.728 z"
     id="path4825"
     inkscape:connector-curvature="0"
     style="fill:#000000" /></svg>