<?xml version="1.0" encoding="UTF-8" standalone="no"?>
<svg
   xmlns:dc="http://purl.org/dc/elements/1.1/"
   xmlns:cc="http://creativecommons.org/ns#"
   xmlns:rdf="http://www.w3.org/1999/02/22-rdf-syntax-ns#"
   xmlns:svg="http://www.w3.org/2000/svg"
   xmlns="http://www.w3.org/2000/svg"
   xmlns:sodipodi="http://sodipodi.sourceforge.net/DTD/sodipodi-0.dtd"
   xmlns:inkscape="http://www.inkscape.org/namespaces/inkscape"
   version="1.1"
   x="0px"
   y="0px"
   viewBox="0 0 90.000015 90"
   enable-background="new 0 0 100 100"
   xml:space="preserve"
   id="svg4543"
   sodipodi:docname="icon.svg"
   width="90.000015"
   height="90"
   inkscape:version="0.92.1 r"><metadata
     id="metadata4549"><rdf:RDF><cc:Work
         rdf:about=""><dc:format>image/svg+xml</dc:format><dc:type
           rdf:resource="http://purl.org/dc/dcmitype/StillImage" /><dc:title></dc:title></cc:Work></rdf:RDF></metadata><defs
     id="defs4547" /><sodipodi:namedview
     pagecolor="#ffffff"
     bordercolor="#666666"
     borderopacity="1"
     objecttolerance="10"
     gridtolerance="10"
     guidetolerance="10"
     inkscape:pageopacity="0"
     inkscape:pageshadow="2"
     inkscape:window-width="3200"
     inkscape:window-height="1689"
     id="namedview4545"
     showgrid="false"
     inkscape:zoom="8.4739677"
     inkscape:cx="16.247539"
     inkscape:cy="45.767963"
     inkscape:window-x="0"
     inkscape:window-y="55"
     inkscape:window-maximized="1"
     inkscape:current-layer="svg4543" /><path
     d="M 89.813,87.386 81.402,70.792 h 1.937 c 1.308,0 2.198,-1.447 1.606,-2.614 L 76.534,51.585 h 1.938 c 1.312,0 2.192,-1.447 1.603,-2.614 L 70.339,29.763 C 69.685,28.471 67.772,28.49 67.125,29.767 L 60.515,42.813 55.234,32.4 h 4.368 c 1.31,0 2.198,-1.445 1.608,-2.614 L 46.611,0.986 c -0.65,-1.286 -2.559,-1.278 -3.211,0 l -14.598,28.8 C 28.21,30.957 29.096,32.4 30.41,32.4 h 4.364 L 29.495,42.815 22.884,29.769 C 22.235,28.493 20.323,28.471 19.669,29.765 L 9.933,48.973 c -0.593,1.166 0.295,2.614 1.604,2.614 h 1.938 L 5.064,68.18 c -0.591,1.168 0.296,2.614 1.605,2.614 H 8.607 L 0.195,87.386 C -0.398,88.556 0.496,90 1.803,90 H 15.81 74.203 88.205 c 0.567,0 1.115,-0.285 1.449,-0.74 0.391,-0.536 0.46,-1.278 0.159,-1.874 z M 13.142,69.806 c 0.591,-1.167 -0.296,-2.614 -1.605,-2.614 H 9.599 L 18.01,50.6 c 0.591,-1.167 -0.296,-2.614 -1.605,-2.614 H 14.47 l 6.805,-13.426 6.2,12.238 -0.604,1.191 h -0.734 c -1.306,0 -2.198,1.445 -1.607,2.611 l 0.507,1.004 -3.539,6.982 c -0.591,1.168 0.296,2.614 1.605,2.614 h 4.369 L 14.7,86.4 H 4.731 Z M 18.736,86.4 32.01,60.214 C 32.601,59.047 31.714,57.6 30.405,57.6 H 26.036 L 39.31,31.414 C 39.901,30.247 39.014,28.8 37.705,28.8 H 33.339 L 45.006,5.782 56.673,28.8 h -4.37 c -1.308,0 -2.198,1.447 -1.606,2.614 L 63.972,57.6 h -4.369 c -1.308,0 -2.198,1.447 -1.606,2.614 L 71.271,86.4 Z m 56.572,0 -12.775,-25.2 h 4.369 c 1.308,0 2.198,-1.447 1.606,-2.614 L 64.969,51.604 65.476,50.6 c 0.587,-1.167 -0.298,-2.611 -1.607,-2.611 h -0.733 l -0.604,-1.192 6.2,-12.237 6.805,13.426 h -1.935 c -1.308,0 -2.198,1.447 -1.606,2.614 l 8.411,16.593 H 78.47 c -1.308,0 -2.198,1.447 -1.606,2.614 L 85.276,86.4 Z M 12.452,24.903 C 5.586,24.903 0,19.317 0,12.451 0,5.585 5.586,0 12.452,0 c 6.866,0 12.452,5.586 12.452,12.451 0,6.865 -5.585,12.452 -12.452,12.452 z m 0,-21.303 C 7.571,3.6 3.6,7.571 3.6,12.451 c 0,4.88 3.971,8.851 8.852,8.851 4.881,0 8.852,-3.971 8.852,-8.851 0,-4.88 -3.971,-8.851 -8.852,-8.851 z"
     id="path4537"
     inkscape:connector-curvature="0" /></svg>