<?xml version="1.0" encoding="UTF-8" standalone="no"?>
<svg
   xmlns:dc="http://purl.org/dc/elements/1.1/"
   xmlns:cc="http://creativecommons.org/ns#"
   xmlns:rdf="http://www.w3.org/1999/02/22-rdf-syntax-ns#"
   xmlns:svg="http://www.w3.org/2000/svg"
   xmlns="http://www.w3.org/2000/svg"
   xmlns:sodipodi="http://sodipodi.sourceforge.net/DTD/sodipodi-0.dtd"
   xmlns:inkscape="http://www.inkscape.org/namespaces/inkscape"
   version="1.1"
   x="0px"
   y="0px"
   viewBox="0 0 95 95"
   enable-background="new 0 0 100 100"
   xml:space="preserve"
   id="svg4849"
   sodipodi:docname="tree.svg"
   width="95"
   height="95"
   inkscape:version="0.92.1 r"><metadata
     id="metadata4855"><rdf:RDF><cc:Work
         rdf:about=""><dc:format>image/svg+xml</dc:format><dc:type
           rdf:resource="http://purl.org/dc/dcmitype/StillImage" /></cc:Work></rdf:RDF></metadata><defs
     id="defs4853" /><sodipodi:namedview
     pagecolor="#ffffff"
     bordercolor="#666666"
     borderopacity="1"
     objecttolerance="10"
     gridtolerance="10"
     guidetolerance="10"
     inkscape:pageopacity="0"
     inkscape:pageshadow="2"
     inkscape:window-width="3200"
     inkscape:window-height="1689"
     id="namedview4851"
     showgrid="false"
     inkscape:zoom="10.680141"
     inkscape:cx="17.906486"
     inkscape:cy="36.141992"
     inkscape:window-x="0"
     inkscape:window-y="55"
     inkscape:window-maximized="1"
     inkscape:current-layer="svg4849" /><path
     d="m 72.284,32.885 c 0.008,-0.171 0.014,-0.341 0.014,-0.515 0,-5.666 -2.775,-10.977 -7.351,-14.263 0.011,-0.17 0.016,-0.341 0.016,-0.515 C 64.963,7.892 57.129,0 47.5,0 37.871,0 30.037,7.892 30.037,17.592 c 0,0.173 0.005,0.344 0.014,0.515 -4.573,3.287 -7.349,8.595 -7.349,14.263 0,0.173 0.006,0.343 0.014,0.515 -4.573,3.285 -7.349,8.592 -7.349,14.263 0,9.701 7.834,17.593 17.464,17.593 h 29.338 c 9.63,0 17.464,-7.893 17.464,-17.593 0,-5.668 -2.776,-10.979 -7.349,-14.263 z"
     id="path4839"
     inkscape:connector-curvature="0" /><path
     d="m 47.5,95 c -1.544,0 -2.794,-1.258 -2.794,-2.814 V 61.927 c 0,-1.557 1.25,-2.815 2.794,-2.815 1.544,0 2.794,1.259 2.794,2.815 V 92.186 C 50.294,93.742 49.044,95 47.5,95 Z"
     id="path4841"
     inkscape:connector-curvature="0" /><path
     d="M 92.206,95 H 2.794 C 1.25,95 0,93.742 0,92.186 0,90.63 1.25,89.372 2.794,89.372 H 92.206 C 93.75,89.372 95,90.631 95,92.186 95,93.742 93.75,95 92.206,95 Z"
     id="path4843"
     inkscape:connector-curvature="0" /></svg>